<?xml version="1.0" standalone="no"?>
<!DOCTYPE svg PUBLIC "-//W3C//DTD SVG 20010904//EN"
 "http://www.w3.org/TR/2001/REC-SVG-20010904/DTD/svg10.dtd">
<svg version="1.0" xmlns="http://www.w3.org/2000/svg"
 width="554.000000pt" height="554.000000pt" viewBox="0 0 554.000000 554.000000"
 preserveAspectRatio="xMidYMid meet">
<metadata>
Created by potrace 1.11, written by Peter Selinger 2001-2013
</metadata>
<g transform="translate(0.000000,554.000000) scale(0.100000,-0.100000)"
fill="#000000" stroke="none">
<path d="M280 4264 c-43 -17 -90 -85 -90 -129 l0 -31 723 1 c681 1 724 2 760
20 43 20 81 72 92 123 l7 33 -729 -2 c-608 -1 -734 -3 -763 -15z"/>
<path d="M3790 4255 c0 -47 41 -104 95 -133 27 -14 112 -16 747 -17 395 -1
723 2 729 5 7 5 7 20 -1 51 -14 50 -64 103 -107 112 -16 3 -352 6 -746 7
l-717 1 0 -26z"/>
<path d="M2399 4197 c-89 -13 -148 -47 -245 -142 -49 -48 -107 -99 -128 -114
l-40 -26 -456 -1 c-480 -1 -501 -3 -565 -48 -36 -25 -60 -51 -80 -88 -12 -22
-48 -183 -80 -360 -3 -15 -14 -71 -24 -124 -11 -54 -18 -101 -15 -105 7 -13
76 1 113 22 66 37 87 89 126 316 19 111 35 168 54 187 21 21 27 21 474 22 338
1 463 4 493 14 81 26 131 61 221 149 135 135 111 129 514 129 218 0 351 -4
374 -11 24 -7 73 -46 141 -113 110 -106 173 -146 254 -159 25 -4 242 -8 482
-9 426 -1 438 -2 458 -21 18 -18 35 -77 54 -190 25 -142 48 -232 68 -261 28
-40 79 -70 135 -78 39 -5 41 -4 37 17 -2 12 -7 36 -9 52 -3 17 -15 77 -26 135
-11 58 -23 119 -26 135 -12 76 -43 213 -52 237 -17 45 -78 104 -133 128 -50
22 -60 22 -512 23 -412 2 -464 4 -492 19 -17 9 -69 53 -115 98 -112 109 -137
127 -205 152 -55 19 -82 20 -400 22 -188 0 -365 -2 -395 -7z"/>
<path d="M2140 3594 c-45 -15 -90 -38 -90 -46 0 -12 114 -127 160 -160 19 -15
59 -35 88 -47 50 -19 78 -20 455 -20 511 -1 504 -3 656 144 l86 84 -53 24
c-36 17 -67 24 -93 22 -39 -3 -52 -10 -140 -70 l-44 -29 -395 0 c-434 0 -404
-4 -495 63 -38 29 -103 45 -135 35z"/>
<path d="M2735 3087 c-16 -5 -38 -17 -49 -26 -10 -9 -136 -188 -280 -399 -143
-210 -322 -471 -397 -580 -74 -108 -144 -219 -155 -247 -13 -33 -19 -75 -19
-125 0 -65 5 -85 32 -141 100 -203 363 -343 728 -386 78 -9 303 -9 380 1 441
55 745 270 746 529 1 102 -21 145 -209 419 -97 142 -211 308 -252 368 -41 61
-100 147 -130 190 -30 44 -99 144 -153 223 -54 79 -110 150 -125 159 -36 22
-81 27 -117 15z m159 -237 c43 -63 124 -182 181 -265 56 -82 143 -210 193
-284 51 -74 92 -138 92 -142 0 -4 -39 6 -87 22 -156 53 -271 71 -458 75 -186
3 -230 -3 -322 -46 -54 -25 -159 -107 -150 -116 2 -2 28 3 58 12 29 9 64 18
76 20 13 2 35 6 51 9 97 17 292 26 292 14 0 -4 -19 -23 -42 -42 -159 -128
-345 -232 -473 -265 -91 -23 -224 -23 -287 0 l-37 13 45 65 c25 36 109 158
187 273 422 619 508 744 522 760 11 12 26 17 48 15 28 -3 41 -16 111 -118z
m293 -754 c4 -3 4 -7 2 -9 -30 -22 -196 -151 -234 -182 -28 -22 -68 -53 -89
-70 -21 -16 -44 -35 -50 -41 -6 -5 -56 -42 -111 -82 -217 -156 -453 -239 -595
-207 -38 8 -96 42 -122 72 -23 26 -48 87 -48 118 0 22 4 25 20 21 11 -3 30 -9
41 -12 68 -19 213 -6 314 28 135 46 268 126 450 272 122 97 151 115 206 124
42 8 200 -16 216 -32z m242 -105 c54 -35 108 -85 139 -129 l21 -29 -66 -12
c-231 -42 -417 -147 -729 -409 -112 -94 -138 -110 -190 -117 -44 -5 -189 24
-289 58 l-70 24 75 22 c41 13 110 41 153 62 75 38 235 140 280 180 75 64 373
297 428 334 108 72 156 75 248 16z m138 -281 c7 0 19 -12 26 -27 35 -69 -66
-191 -229 -278 -85 -45 -256 -98 -359 -110 -27 -3 -66 -8 -85 -11 -40 -6 -161
-7 -166 -1 -6 6 186 164 281 232 81 58 156 100 254 143 63 27 217 63 246 57
11 -3 26 -5 32 -5z"/>
</g>
</svg>
