<?xml version="1.0" encoding="UTF-8" standalone="no"?>
<!-- Created with Inkscape (http://www.inkscape.org/) -->

<svg
   xmlns:dc="http://purl.org/dc/elements/1.1/"
   xmlns:cc="http://creativecommons.org/ns#"
   xmlns:rdf="http://www.w3.org/1999/02/22-rdf-syntax-ns#"
   xmlns:svg="http://www.w3.org/2000/svg"
   xmlns="http://www.w3.org/2000/svg"
   xmlns:xlink="http://www.w3.org/1999/xlink"
   xmlns:sodipodi="http://sodipodi.sourceforge.net/DTD/sodipodi-0.dtd"
   xmlns:inkscape="http://www.inkscape.org/namespaces/inkscape"
   width="50"
   height="50"
   id="svg3916"
   version="1.1"
   inkscape:version="0.48.5 r10040"
   sodipodi:docname="envX.svg">
  <defs
     id="defs3918">
    <radialGradient
       inkscape:collect="always"
       xlink:href="#linearGradient3998-8-5"
       id="radialGradient3853"
       gradientUnits="userSpaceOnUse"
       gradientTransform="matrix(-1.8692227e-6,-3.0911295,3.2999354,-1.9954888e-6,1288.1167,1002.4361)"
       cx="308.04135"
       cy="-87.115868"
       fx="308.04135"
       fy="-87.115868"
       r="16.962629" />
    <linearGradient
       inkscape:collect="always"
       id="linearGradient3998-8-5">
      <stop
         style="stop-color:#38db97;stop-opacity:1;"
         offset="0"
         id="stop4000-6-7" />
      <stop
         style="stop-color:#38db97;stop-opacity:0;"
         offset="1"
         id="stop4002-98-8" />
    </linearGradient>
    <radialGradient
       r="16.962629"
       fy="-87.115868"
       fx="308.04135"
       cy="-87.115868"
       cx="308.04135"
       gradientTransform="matrix(-1.8692227e-6,-3.0911295,3.2999354,-1.9954888e-6,1295.7503,1000.1056)"
       gradientUnits="userSpaceOnUse"
       id="radialGradient4154-4"
       xlink:href="#linearGradient3998-8-5-2"
       inkscape:collect="always" />
    <linearGradient
       inkscape:collect="always"
       id="linearGradient3998-8-5-2">
      <stop
         style="stop-color:#38db97;stop-opacity:1;"
         offset="0"
         id="stop4000-6-7-79" />
      <stop
         style="stop-color:#38db97;stop-opacity:0;"
         offset="1"
         id="stop4002-98-8-5" />
    </linearGradient>
    <radialGradient
       inkscape:collect="always"
       xlink:href="#linearGradient3998-8-5-2"
       id="radialGradient3017"
       gradientUnits="userSpaceOnUse"
       gradientTransform="matrix(-1.8692227e-6,-3.0911295,3.2999354,-1.9954888e-6,344.09425,961.01788)"
       cx="308.04135"
       cy="-87.115868"
       fx="308.04135"
       fy="-87.115868"
       r="16.962629" />
  </defs>
  <sodipodi:namedview
     id="base"
     pagecolor="#ffffff"
     bordercolor="#666666"
     borderopacity="1.0"
     inkscape:pageopacity="0.0"
     inkscape:pageshadow="2"
     inkscape:zoom="3.0750883"
     inkscape:cx="-49.864829"
     inkscape:cy="22.726633"
     inkscape:current-layer="layer1"
     showgrid="true"
     inkscape:grid-bbox="true"
     inkscape:document-units="px"
     inkscape:window-width="1366"
     inkscape:window-height="706"
     inkscape:window-x="-8"
     inkscape:window-y="-8"
     inkscape:window-maximized="1" />
  <metadata
     id="metadata3921">
    <rdf:RDF>
      <cc:Work
         rdf:about="">
        <dc:format>image/svg+xml</dc:format>
        <dc:type
           rdf:resource="http://purl.org/dc/dcmitype/StillImage" />
        <dc:title />
      </cc:Work>
    </rdf:RDF>
  </metadata>
  <g
     id="layer1"
     inkscape:label="Layer 1"
     inkscape:groupmode="layer"
     transform="translate(0,34)">
    <g
       id="g3012"
       transform="matrix(0.46563602,0,0,0.46563602,-0.6313918,-12.852171)">
      <rect
         y="-49.586617"
         x="-11.52714"
         height="111.95116"
         width="121.68605"
         id="rect3996-6-2-3"
         style="fill:url(#radialGradient3017);fill-opacity:1;fill-rule:nonzero;stroke:none;display:inline" />
      <path
         transform="matrix(3.2691545,0,0,3.2691545,-1100.0109,-562.63046)"
         d="m 360.96475,174.04962 c 0,4.12201 -3.34155,7.46356 -7.46356,7.46356 -4.12201,0 -7.46356,-3.34155 -7.46356,-7.46356 0,-4.12201 3.34155,-7.46356 7.46356,-7.46356 4.12201,0 7.46356,3.34155 7.46356,7.46356 z"
         sodipodi:ry="7.4635568"
         sodipodi:rx="7.4635568"
         sodipodi:cy="174.04962"
         sodipodi:cx="353.50119"
         id="path4173-1"
         style="fill:#f4e3e3;fill-opacity:1;fill-rule:nonzero;stroke:none;display:inline"
         sodipodi:type="arc" />
      <path
         inkscape:connector-curvature="0"
         id="path3895-2"
         d="m 30.309805,34.219195 c -1.0524,-1.0883 -1.9134,-2.209 -1.9134,-2.4903 0,-0.2813 4.9628,-5.4494 11.0286,-11.4846 6.0657,-6.0352 11.02875,-11.2797002 11.02875,-11.6543002 0,-0.3747 -4.88295,-5.5699 -10.85085,-11.545 -5.9679,-5.9751 -10.8508,-11.1213998 -10.8508,-11.4361998 0,-0.3147 0.7527,-1.5143 1.6726,-2.6657 l 1.6724,-2.0934 11.7165,11.6646998 11.71675,11.6647 11.5679,-11.5119 11.5679,-11.5118998 2.2725,2.1155 2.2726,2.1154 -11.3981,11.3584998 c -6.269,6.2471 -11.3982,11.5653 -11.3982,11.8182 0,0.2528 5.1386,5.5938002 11.419,11.8687002 l 11.4189,11.4091 -1.7648,1.6308 c -0.9707,0.8968 -2.0881,1.7177 -2.483,1.824 -0.395,0.1064 -5.8314,-4.867 -12.0809,-11.0519 l -11.3626,-11.2452 -11.66925,11.5998 -11.6693,11.5997 -1.9132,-1.9787 z"
         style="fill:#2e8187;fill-opacity:1;fill-rule:nonzero;stroke:none" />
    </g>
  </g>
</svg>
